<?xml version="1.0" encoding="UTF-8"?>
<svg xmlns="http://www.w3.org/2000/svg" width="491" height="341" viewBox="0 0 491 341" fill="none">

  <defs>
    
    <linearGradient id="markGrad" x1="0" y1="341" x2="491" y2="0" gradientUnits="userSpaceOnUse">
      <stop offset="0%" stop-color="#5CEBFF"/>
      <stop offset="45%" stop-color="#3E7BFF"/>
      <stop offset="100%" stop-color="#2C58FF"/>
    </linearGradient>
    <filter id="pinkGlow" x="-200%" y="-200%" width="400%" height="400%">
      <feGaussianBlur stdDeviation="10" result="b"/>
      <feColorMatrix in="b" type="matrix" values="1 0 0 0 0  0 1 0 0 0  0 0 1 0 0  0 0 0 0.65 0" result="c"/>
      <feMerge><feMergeNode in="c"/><feMergeNode in="SourceGraphic"/></feMerge>
    </filter>
  </defs>
    <g fill-rule="evenodd"><path d="M 141.0 322.5 L 106.0 322.5 L 105.0 321.5 L 95.0 321.5 L 94.0 320.5 L 89.0 320.5 L 83.0 318.5 L 78.0 318.5 L 74.0 316.5 L 70.0 316.5 L 52.0 310.5 L 35.0 302.5 L 22.0 293.5 L 17.5 289.0 L 17.5 286.0 L 19.0 284.5 L 22.0 284.5 L 23.0 285.5 L 39.0 287.5 L 40.0 288.5 L 58.0 289.5 L 59.0 290.5 L 93.0 289.5 L 94.0 288.5 L 102.0 288.5 L 103.0 287.5 L 109.0 287.5 L 110.0 286.5 L 142.0 282.5 L 143.0 281.5 L 153.0 280.5 L 173.0 275.5 L 177.0 275.5 L 194.0 270.5 L 198.0 270.5 L 205.0 267.5 L 233.0 260.5 L 272.0 247.5 L 275.0 245.5 L 280.0 244.5 L 315.0 230.5 L 343.0 216.5 L 354.0 209.5 L 362.5 202.0 L 366.5 196.0 L 366.5 188.0 L 364.5 185.0 L 358.0 179.5 L 348.0 173.5 L 318.0 160.5 L 293.0 152.5 L 285.0 148.5 L 280.0 147.5 L 262.0 139.5 L 247.0 134.5 L 234.0 127.5 L 228.5 122.0 L 226.5 117.0 L 227.5 109.0 L 231.5 103.0 L 243.0 93.5 L 257.0 85.5 L 259.0 85.5 L 266.0 81.5 L 273.0 79.5 L 283.0 74.5 L 291.0 72.5 L 294.0 70.5 L 312.0 64.5 L 315.0 64.5 L 334.0 57.5 L 337.0 57.5 L 349.0 53.5 L 349.0 52.5 L 336.0 54.5 L 319.0 59.5 L 307.0 61.5 L 296.0 65.5 L 289.0 66.5 L 241.0 83.5 L 223.0 92.5 L 221.0 92.5 L 205.0 101.5 L 194.5 110.0 L 188.5 116.0 L 186.5 120.0 L 186.5 127.0 L 188.5 131.0 L 199.0 139.5 L 210.0 145.5 L 262.0 165.5 L 284.0 175.5 L 295.0 182.5 L 302.5 190.0 L 302.5 192.0 L 301.0 193.5 L 288.0 188.5 L 281.0 187.5 L 273.0 184.5 L 245.0 179.5 L 236.0 176.5 L 227.0 175.5 L 207.0 170.5 L 203.0 168.5 L 196.0 167.5 L 189.0 164.5 L 183.0 163.5 L 161.0 153.5 L 155.0 149.5 L 148.5 143.0 L 144.5 135.0 L 145.5 123.0 L 150.5 115.0 L 161.0 105.5 L 185.0 91.5 L 187.0 91.5 L 209.0 81.5 L 259.0 65.5 L 267.0 64.5 L 271.0 62.5 L 291.0 57.5 L 300.0 56.5 L 305.0 54.5 L 309.0 54.5 L 335.0 48.5 L 347.0 47.5 L 353.0 45.5 L 359.0 45.5 L 361.0 49.5 L 364.0 49.5 L 376.0 45.5 L 388.0 43.5 L 405.0 38.5 L 418.0 37.5 L 422.0 39.5 L 423.5 42.0 L 423.5 48.0 L 415.0 52.5 L 390.0 56.5 L 386.0 58.5 L 360.0 64.5 L 315.0 79.5 L 290.0 89.5 L 283.0 93.5 L 281.0 93.5 L 257.0 107.5 L 250.5 114.0 L 248.5 119.0 L 248.5 122.0 L 250.5 126.0 L 255.0 130.5 L 263.0 135.5 L 269.0 137.5 L 273.0 137.5 L 282.0 140.5 L 292.0 141.5 L 307.0 145.5 L 318.0 146.5 L 323.0 148.5 L 350.0 153.5 L 363.0 157.5 L 367.0 157.5 L 384.0 163.5 L 390.0 164.5 L 404.0 170.5 L 414.0 176.5 L 422.5 185.0 L 425.5 190.0 L 426.5 200.0 L 424.5 207.0 L 419.5 215.0 L 410.0 224.5 L 401.0 231.5 L 382.0 243.5 L 349.0 260.5 L 347.0 260.5 L 338.0 265.5 L 336.0 265.5 L 310.0 277.5 L 248.0 299.5 L 245.0 299.5 L 224.0 306.5 L 217.0 307.5 L 213.0 309.5 L 197.0 312.5 L 192.0 314.5 L 183.0 315.5 L 182.0 316.5 L 167.0 318.5 L 166.0 319.5 L 142.0 321.5 L 141.0 322.5 Z" fill="url(#markGrad)"/><circle cx="453.5" cy="37.0" r="19.5" fill="#F68BFF" filter="url(#pinkGlow)"/></g>
</svg>
