<?xml version="1.0" encoding="UTF-8"?>
<svg xmlns="http://www.w3.org/2000/svg" width="288" height="186" viewBox="0 0 288 186" fill="none">

  <defs>
    
    <linearGradient id="bgGrad" x1="0" y1="0" x2="1" y2="1">
      <stop offset="0%" stop-color="#050816"/>
      <stop offset="100%" stop-color="#0B1230"/>
    </linearGradient>
    <radialGradient id="bgGlow" cx="0" cy="0" r="1" gradientUnits="userSpaceOnUse" gradientTransform="translate(86.4 37.2) rotate(40) scale(172.8 65.1)">
      <stop offset="0%" stop-color="#1A2558" stop-opacity="0.55"/>
      <stop offset="100%" stop-color="#1A2558" stop-opacity="0"/>
    </radialGradient>
    
    <linearGradient id="markGrad" x1="0" y1="186" x2="288" y2="0" gradientUnits="userSpaceOnUse">
      <stop offset="0%" stop-color="#5CEBFF"/>
      <stop offset="45%" stop-color="#3E7BFF"/>
      <stop offset="100%" stop-color="#2C58FF"/>
    </linearGradient>
    <filter id="pinkGlow" x="-200%" y="-200%" width="400%" height="400%">
      <feGaussianBlur stdDeviation="10" result="b"/>
      <feColorMatrix in="b" type="matrix" values="1 0 0 0 0  0 1 0 0 0  0 0 1 0 0  0 0 0 0.65 0" result="c"/>
      <feMerge><feMergeNode in="c"/><feMergeNode in="SourceGraphic"/></feMerge>
    </filter>
  </defs>
    <rect width="288" height="186" fill="url(#bgGrad)"/><rect width="288" height="186" fill="url(#bgGlow)"/><g fill-rule="evenodd"><path d="M 94.0 167.5 L 72.0 167.5 L 71.0 166.5 L 63.0 166.5 L 62.0 165.5 L 54.0 164.5 L 42.0 160.5 L 30.0 154.5 L 20.0 147.5 L 17.5 143.0 L 19.0 141.5 L 22.0 141.5 L 42.0 146.5 L 62.0 147.5 L 63.0 146.5 L 78.0 146.5 L 79.0 145.5 L 97.0 144.5 L 98.0 143.5 L 104.0 143.5 L 110.0 141.5 L 121.0 140.5 L 141.0 135.5 L 145.0 133.5 L 152.0 132.5 L 178.0 123.5 L 193.0 116.5 L 203.5 109.0 L 205.5 106.0 L 205.5 102.0 L 202.0 97.5 L 191.0 91.5 L 170.0 84.5 L 169.5 82.0 L 171.0 80.5 L 184.0 81.5 L 190.0 83.5 L 199.0 84.5 L 220.0 90.5 L 225.0 93.5 L 231.5 101.0 L 230.5 113.0 L 221.0 123.5 L 207.0 132.5 L 191.0 140.5 L 189.0 140.5 L 182.0 144.5 L 172.0 147.5 L 169.0 149.5 L 142.0 158.5 L 116.0 164.5 L 104.0 165.5 L 103.0 166.5 L 95.0 166.5 L 94.0 167.5 Z" fill="#F7F8FC"/><path d="M 170.0 98.5 L 163.0 98.5 L 156.0 96.5 L 138.0 94.5 L 137.0 93.5 L 119.0 90.5 L 107.0 86.5 L 97.5 79.0 L 96.5 76.0 L 97.5 68.0 L 109.0 57.5 L 138.0 46.5 L 174.0 37.5 L 235.0 28.5 L 235.0 36.5 L 208.0 40.5 L 165.0 51.5 L 139.0 60.5 L 131.0 64.5 L 124.5 70.0 L 124.5 74.0 L 128.0 77.5 L 144.0 84.5 L 163.0 90.5 L 170.5 95.0 L 170.0 98.5 Z" fill="#F7F8FC"/><circle cx="258.0" cy="28.5" r="12.0" fill="#F7F8FC"/></g>
</svg>
