<?xml version="1.0" encoding="UTF-8"?>
<svg xmlns="http://www.w3.org/2000/svg" width="1200" height="320" viewBox="0 0 1200 320" fill="none">

  <defs>
    
    <linearGradient id="bgGrad" x1="0" y1="0" x2="1" y2="1">
      <stop offset="0%" stop-color="#050816"/>
      <stop offset="100%" stop-color="#0B1230"/>
    </linearGradient>
    <radialGradient id="bgGlow" cx="0" cy="0" r="1" gradientUnits="userSpaceOnUse" gradientTransform="translate(360.0 64.0) rotate(40) scale(720.0 112.0)">
      <stop offset="0%" stop-color="#1A2558" stop-opacity="0.55"/>
      <stop offset="100%" stop-color="#1A2558" stop-opacity="0"/>
    </radialGradient>
    
    <linearGradient id="markGrad" x1="0" y1="320" x2="1200" y2="0" gradientUnits="userSpaceOnUse">
      <stop offset="0%" stop-color="#5CEBFF"/>
      <stop offset="45%" stop-color="#3E7BFF"/>
      <stop offset="100%" stop-color="#2C58FF"/>
    </linearGradient>
    <filter id="pinkGlow" x="-200%" y="-200%" width="400%" height="400%">
      <feGaussianBlur stdDeviation="10" result="b"/>
      <feColorMatrix in="b" type="matrix" values="1 0 0 0 0  0 1 0 0 0  0 0 1 0 0  0 0 0 0.65 0" result="c"/>
      <feMerge><feMergeNode in="c"/><feMergeNode in="SourceGraphic"/></feMerge>
    </filter>
  </defs>
    <rect width="1200" height="320" fill="url(#bgGrad)"/><rect width="1200" height="320" fill="url(#bgGlow)"/><path d="m 42.890625,90.820312 c 11.914062,0 20.46875,-5.78125 20.46875,-14.765625 0,-6.328125 -4.179688,-10.15625 -12.851563,-11.796875 l -8.359375,-1.5625 c -3.75,-0.742187 -4.921875,-2.109375 -4.921875,-3.867187 0,-2.226563 2.578125,-3.671875 5.859375,-3.671875 3.671875,0 6.171875,1.71875 6.992188,4.648437 l 12.03125,-1.914062 c -1.523438,-7.5 -8.320313,-12.109375 -19.257813,-12.109375 -11.71875,0 -19.21875,5.15625 -19.21875,13.867187 0,6.679688 4.296875,10.9375 12.929688,12.578125 l 7.617187,1.484375 c 3.632813,0.742188 5.351563,1.875 5.351563,3.90625 0,2.226563 -2.304688,3.632813 -6.132813,3.632813 -4.648437,0 -7.109375,-1.953125 -8.203125,-5.742188 L 22.539062,77.5 C 24.0625,85.859375 31.71875,90.820312 42.890625,90.820312 Z M 93.90625,46.328125 H 86.054687 V 35.9375 H 72.421875 v 10.390625 h -5.78125 v 10.117187 h 5.78125 v 21.40625 c 0,8.320313 4.882812,12.773438 14.140625,12.773438 2.578125,0 5.46875,-0.273438 8.515625,-1.132813 l -1.757813,-9.921875 c -0.742187,0.195313 -2.851562,0.46875 -3.789062,0.46875 -2.460938,0 -3.476563,-1.09375 -3.476563,-3.398437 V 56.445312 H 93.90625 Z M 100.89844,90 h 13.63281 V 66.171875 c 0,-5.234375 3.71094,-8.75 8.75,-8.75 1.64063,0 4.10156,0.273437 5.39062,0.703125 V 46.25 c -1.13281,-0.273438 -2.57812,-0.46875 -3.86718,-0.46875 -4.80469,0 -8.63281,2.773437 -10.19531,8.515625 h -0.46875 v -7.96875 h -13.24219 z m 33.78906,0 h 13.63281 V 46.328125 H 134.6875 Z m 6.79687,-48.789063 c 3.90625,0 7.07032,-2.929687 7.07032,-6.5625 0,-3.632812 -3.16407,-6.5625 -7.07032,-6.5625 -3.86718,0 -7.03125,2.929688 -7.03125,6.5625 0,3.632813 3.16407,6.5625 7.03125,6.5625 z M 173.16406,90.625 c 6.64063,0 10.54688,-3.75 12.26563,-7.695313 h 0.46875 V 90 h 13.4375 V 31.796875 h -13.59375 v 22.03125 h -0.3125 c -1.64063,-3.945313 -5.39063,-8.046875 -12.38282,-8.046875 -9.17968,0 -17.38281,7.109375 -17.38281,22.421875 0,14.804687 7.77344,22.421875 17.5,22.421875 z M 177.8125,80 c -5.27344,0 -8.125,-4.6875 -8.125,-11.796875 0,-7.109375 2.85156,-11.757813 8.125,-11.757813 5.19531,0 8.24219,4.53125 8.24219,11.757813 C 186.05469,75.351562 182.96875,80 177.8125,80 Z m 50.89844,10.820312 c 10.58593,0 17.73437,-4.804687 19.92187,-12.382812 l -12.14844,-1.992188 c -1.09375,2.929688 -3.86718,4.492188 -7.53906,4.492188 -5.15625,0 -8.63281,-3.125 -8.86719,-9.453125 h 29.17969 v -3.4375 c 0,-14.414063 -8.78906,-22.265625 -21.05469,-22.265625 -13.125,0 -21.52343,9.0625 -21.52343,22.539062 0,13.984375 8.32031,22.5 22.03125,22.5 z m -8.55469,-27.265625 c 0.50781,-4.804687 3.35937,-7.890625 8.16406,-7.890625 4.76563,0 7.46094,2.929688 8.00781,7.890625 z M 270.03906,31.796875 H 256.40625 V 90 h 13.63281 z m 29.29688,59.023437 c 13.63281,0 21.91406,-9.0625 21.91406,-22.5 0,-13.476562 -8.28125,-22.539062 -21.91406,-22.539062 -13.67188,0 -21.95313,9.0625 -21.95313,22.539062 0,13.4375 8.28125,22.5 21.95313,22.5 z m 0,-10.429687 c -5.23438,0 -8.04688,-4.882813 -8.04688,-12.148438 0,-7.304687 2.8125,-12.03125 8.04688,-12.03125 5.23437,0 8.04687,4.726563 8.04687,12.03125 0,7.265625 -2.8125,12.148438 -8.04687,12.148438 z m 49.375,26.875005 c 13.04687,0 22.03125,-6.17188 22.03125,-18.242193 V 46.328125 h -13.47657 v 7.5 H 356.875 c -1.64063,-3.945313 -5.58594,-8.046875 -12.5,-8.046875 -9.17969,0 -17.46094,7.109375 -17.46094,22.382812 0,14.726563 7.92969,21.25 17.5,21.25 6.48438,0 10.23438,-3.085937 11.83594,-7.03125 h 1.05469 v 7.734375 c 0,5.195313 -3.125,7.65625 -8.67188,7.65625 -4.88281,0 -7.57812,-1.992187 -8.35937,-4.375 l -11.83594,2.421875 c 1.60156,6.835938 8.86719,11.445318 20.27344,11.445318 z m 0.35156,-27.851568 c -5.23438,0 -8.125,-4.257812 -8.125,-11.289062 0,-7.03125 2.89062,-11.679688 8.125,-11.679688 5.23437,0 8.24219,4.53125 8.24219,11.679688 0,7.070312 -3.00782,11.289062 -8.24219,11.289062 z" fill="#F7F8FC" transform="translate(160,42) scale(2.6)"/>
</svg>
