<?xml version="1.0" encoding="UTF-8"?>
<svg xmlns="http://www.w3.org/2000/svg" width="262" height="183" viewBox="0 0 262 183" fill="none">

  <defs>
    
    <linearGradient id="markGrad" x1="0" y1="183" x2="262" y2="0" gradientUnits="userSpaceOnUse">
      <stop offset="0%" stop-color="#5CEBFF"/>
      <stop offset="45%" stop-color="#3E7BFF"/>
      <stop offset="100%" stop-color="#2C58FF"/>
    </linearGradient>
    <filter id="pinkGlow" x="-200%" y="-200%" width="400%" height="400%">
      <feGaussianBlur stdDeviation="10" result="b"/>
      <feColorMatrix in="b" type="matrix" values="1 0 0 0 0  0 1 0 0 0  0 0 1 0 0  0 0 0 0.65 0" result="c"/>
      <feMerge><feMergeNode in="c"/><feMergeNode in="SourceGraphic"/></feMerge>
    </filter>
  </defs>
    <g fill-rule="evenodd"><path d="M 79.0 164.5 L 54.0 164.5 L 53.0 163.5 L 43.0 162.5 L 34.0 159.5 L 22.0 153.5 L 17.5 150.0 L 17.5 148.0 L 19.0 146.5 L 22.0 146.5 L 31.0 150.5 L 40.0 151.5 L 41.0 152.5 L 75.0 152.5 L 76.0 151.5 L 83.0 151.5 L 84.0 150.5 L 99.0 148.5 L 118.0 142.5 L 121.0 142.5 L 128.0 139.5 L 131.0 139.5 L 134.0 137.5 L 153.0 131.5 L 176.0 120.5 L 186.5 112.0 L 186.5 110.0 L 184.0 107.5 L 173.0 102.5 L 138.0 93.5 L 134.0 93.5 L 129.0 91.5 L 113.0 88.5 L 92.0 81.5 L 86.0 78.5 L 80.5 72.0 L 80.5 67.0 L 83.5 62.0 L 90.0 57.5 L 101.0 52.5 L 130.0 43.5 L 146.0 39.5 L 150.0 39.5 L 155.0 37.5 L 164.0 36.5 L 165.0 35.5 L 170.0 35.5 L 181.0 32.5 L 187.0 32.5 L 188.0 31.5 L 208.0 28.5 L 208.0 37.5 L 201.0 37.5 L 200.0 38.5 L 179.0 41.5 L 174.0 43.5 L 170.0 43.5 L 134.0 52.5 L 108.0 61.5 L 98.5 68.0 L 100.0 71.5 L 111.0 76.5 L 182.0 93.5 L 198.0 100.5 L 204.5 108.0 L 204.5 115.0 L 201.5 120.0 L 195.0 125.5 L 185.0 131.5 L 151.0 146.5 L 117.0 157.5 L 100.0 160.5 L 95.0 162.5 L 80.0 163.5 L 79.0 164.5 Z" fill="url(#markGrad)"/><circle cx="231.5" cy="29.5" r="12.5" fill="#F68BFF" filter="url(#pinkGlow)"/></g>
</svg>
